<svg viewBox="0 0 48 48" xmlns="http://www.w3.org/2000/svg"><g fill="none" stroke="#000" stroke-linejoin="round"><rect height="18.5" rx="4" width="18.5" x="24" y="5.5"/><rect height="18.5" rx="4" width="18.5" x="5.5" y="24"/><rect height="18.5" rx="4" width="18.5" x="24" y="24"/><rect height="18.5" rx="4" width="18.5" x="5.5" y="5.5"/><g stroke-linecap="round"><path d="m16.805 38.25-.001-10-5.366 6.717h6.625M29.938 16.438a3.313 3.313 0 0 0 6.625 0v-3.375a3.313 3.313 0 0 0-6.626 0zM11.438 13.063a3.313 3.313 0 0 1 6.624 0 3.09 3.09 0 0 1-.97 2.342c-1.34 1.176-5.654 4.345-5.654 4.345h6.625M32.438 33.25a2.5 2.5 0 0 0-2.5 2.5 2.5 2.5 0 0 0 2.5 2.5h1.624a2.5 2.5 0 0 0 2.5-2.5 2.5 2.5 0 0 0-2.5-2.5M34.063 33.25a2.5 2.5 0 0 0 2.5-2.5 2.5 2.5 0 0 0-2.5-2.5h-1.626a2.5 2.5 0 0 0-2.5 2.5 2.5 2.5 0 0 0 2.5 2.5M32.438 33.25h1.624"/></g></g></svg>